# xmcd
#
# Track frame offsets:
#	150
#	10817
#	18800
#	28474
#	44479
#	56133
#	64855
#	75432
#	87229
#	95880
#	104640
#	114169
#	125047
#	138106
#
# Disc length: 1938 seconds
#
# Revision: 1
# Processed by: cddbd v1.5.2PL0 Copyright (c) Steve Scherf et al.
# Submitted via: audiograbber 1.83.01
#
DISCID=bc07900e
DTITLE=Moe Bandy and The Mavericks - Out of print - Digital only
DYEAR=2005
DGENRE=Country
TTITLE0=One more tomorrow
TTITLE1=I didn't think I loved you
TTITLE2=Country show
TTITLE3=Pleading
TTITLE4=As long as there's a chance
TTITLE5=Playboy
TTITLE6=My heart belongs to you
TTITLE7=You're part of me
TTITLE8=What would you do
TTITLE9=Too many times
TTITLE10=Anything for you
TTITLE11=Lonely girl
TTITLE12=Still a fool for you
TTITLE13=Hey there my friends
EXTD=
EXTT0=
EXTT1=
EXTT2=
EXTT3=
EXTT4=
EXTT5=
EXTT6=
EXTT7=
EXTT8=
EXTT9=
EXTT10=
EXTT11=
EXTT12=
EXTT13=
PLAYORDER=
